<svg width="290" height="78" viewBox="0 0 290 78" fill="none" xmlns="http://www.w3.org/2000/svg">
<path d="M27.0809 63.1748L13.1354 37.7276V63.1748H0V6.56703C0 4.82534 0.691953 3.15499 1.92364 1.92344C3.15532 0.691881 4.82585 0 6.56771 0L13.1354 0V33.9296L22.987 19.4603C24.0486 17.9116 25.4715 16.6448 27.1327 15.7694C28.7939 14.8941 30.6434 14.4366 32.5211 14.4365H41.4094L25.8111 35.8341L42.0662 63.1967L27.0809 63.1748Z" fill="#2B59FF"/>
<path d="M40.5009 38.7235C40.4702 35.3369 41.1488 31.9815 42.4931 28.8729C43.7845 25.8814 45.6431 23.1681 47.9662 20.8831C50.2932 18.584 53.0342 16.7457 56.0445 15.4653C59.1582 14.1379 62.5112 13.4637 65.896 13.4842C69.2597 13.463 72.5914 14.1375 75.6819 15.4653C81.6996 18.0755 86.487 22.8938 89.0582 28.9277C90.3987 32.037 91.0736 35.3924 91.0394 38.7782C91.0562 42.1623 90.3821 45.5142 89.0582 48.6287C86.5025 54.687 81.6954 59.5171 75.6491 62.1021C72.5586 63.4299 69.2269 64.1043 65.8632 64.0831C62.4784 64.1037 59.1254 63.4294 56.0116 62.1021C52.9969 60.8053 50.2557 58.9482 47.9333 56.6296C45.5723 54.2843 43.6998 51.4941 42.424 48.4206C41.1483 45.3471 40.4946 42.0512 40.5009 38.7235ZM53.2313 38.625C53.2058 40.3924 53.541 42.1465 54.2164 43.7801C54.8564 45.3035 55.7731 46.6951 56.9202 47.8845C58.0652 49.0559 59.4304 49.9895 60.9374 50.6317C62.4924 51.3021 64.1699 51.6413 65.8632 51.6277C67.539 51.6437 69.1992 51.3042 70.7343 50.6317C72.2233 49.9803 73.5725 49.0475 74.7077 47.8845C75.8486 46.6989 76.7515 45.3056 77.3676 43.7801C78.0166 42.1398 78.34 40.3888 78.32 38.625C78.3362 36.9111 78.0125 35.2111 77.3676 33.6231C76.7555 32.1214 75.8513 30.7561 74.7077 29.6063C73.5617 28.4645 72.2146 27.5443 70.7343 26.8919C69.1967 26.2284 67.5377 25.8929 65.8632 25.9068C64.1712 25.8948 62.4947 26.2301 60.9374 26.8919C59.4386 27.5343 58.0754 28.4554 56.9202 29.6063C55.7702 30.7599 54.8524 32.1235 54.2164 33.6231C53.5417 35.2035 53.2025 36.9067 53.2203 38.625H53.2313Z" fill="#2B59FF"/>
<path d="M161.719 63.2732H148.584V34.2031C148.744 32.0002 148.081 29.8162 146.723 28.0739C146.138 27.3987 145.41 26.8619 144.592 26.5023C143.775 26.1427 142.887 25.9692 141.994 25.9944C141.013 25.9659 140.038 26.1621 139.145 26.5681C138.251 26.974 137.462 27.579 136.838 28.3366C135.481 30.0212 134.777 32.1395 134.857 34.3016V63.1747H121.722V34.1156C121.88 31.9181 121.238 29.7376 119.916 27.9754C119.339 27.302 118.619 26.7665 117.808 26.4085C116.997 26.0505 116.117 25.879 115.231 25.9068C114.251 25.8767 113.277 26.0723 112.385 26.4784C111.493 26.8845 110.706 27.4904 110.086 28.249C108.722 29.9268 108.014 32.0426 108.094 34.2031V63.1747H94.9583V21.2661C94.9583 19.4547 95.6779 17.7176 96.9589 16.4368C98.2398 15.1559 99.9772 14.4364 101.789 14.4364H108.05V20.489C109.419 18.4041 111.26 16.6716 113.425 15.4324C115.665 14.16 118.204 13.5065 120.78 13.5389C123.523 13.4554 126.216 14.2787 128.443 15.8811C130.54 17.4708 132.176 19.5901 133.182 22.0213C134.566 19.5183 136.577 17.4177 139.017 15.9249C141.476 14.3775 144.332 13.5789 147.237 13.6265C149.358 13.5902 151.458 14.0395 153.378 14.9399C155.149 15.7849 156.706 17.0197 157.932 18.5517C159.2 20.1442 160.151 21.9647 160.734 23.9148C161.371 26.0453 161.688 28.2583 161.675 30.4818L161.719 63.2732Z" fill="#2B59FF"/>
<path d="M188.559 77.6221H175.763C175.734 77.6224 175.706 77.6155 175.68 77.6022C175.655 77.5889 175.633 77.5694 175.617 77.5456C175.6 77.5218 175.59 77.4943 175.587 77.4656C175.584 77.437 175.588 77.408 175.599 77.3813L181.707 60.6244C181.723 60.5821 181.723 60.5354 181.707 60.4931L163.098 14.6881C163.085 14.6608 163.079 14.6307 163.081 14.6004C163.083 14.5702 163.093 14.541 163.109 14.5156C163.126 14.4903 163.149 14.4697 163.175 14.4557C163.202 14.4418 163.232 14.4352 163.263 14.4363H172.414C173.661 14.4369 174.88 14.806 175.918 15.4973C176.956 16.1886 177.767 17.1713 178.248 18.3218L188.176 41.9959C188.191 42.0286 188.215 42.0563 188.245 42.0758C188.275 42.0952 188.31 42.1056 188.346 42.1056C188.382 42.1056 188.417 42.0952 188.447 42.0758C188.477 42.0563 188.501 42.0286 188.516 41.9959L196.933 18.6064C197.373 17.3823 198.18 16.3238 199.243 15.5755C200.307 14.8272 201.576 14.4255 202.877 14.4254H211.36C211.389 14.4269 211.418 14.4354 211.443 14.45C211.469 14.4646 211.49 14.485 211.506 14.5095C211.522 14.5341 211.532 14.562 211.535 14.5912C211.539 14.6203 211.535 14.6497 211.524 14.6771L188.734 77.5017C188.721 77.5372 188.697 77.5678 188.666 77.5893C188.634 77.6108 188.597 77.6223 188.559 77.6221Z" fill="#2B59FF"/>
<path d="M245.841 63.1747V57.133C244.272 59.2378 242.252 60.9654 239.93 62.1896C237.463 63.4698 234.718 64.1203 231.939 64.0831C229.618 64.1253 227.318 63.6465 225.207 62.6822C223.296 61.7791 221.605 60.4721 220.248 58.8514C218.859 57.1584 217.814 55.2101 217.173 53.1162C216.47 50.822 216.123 48.4339 216.144 46.0348V23.1158C216.142 21.9765 216.365 20.8482 216.8 19.7952C217.235 18.7422 217.874 17.7853 218.679 16.9792C219.484 16.1731 220.44 15.5336 221.493 15.0973C222.545 14.661 223.674 14.4364 224.813 14.4364H229.191V42.3353C229.191 45.524 229.976 47.8699 231.545 49.373C232.281 50.101 233.155 50.6753 234.115 51.0624C235.075 51.4495 236.103 51.6416 237.138 51.6277C238.3 51.6661 239.456 51.4565 240.53 51.013C241.604 50.5695 242.571 49.9022 243.367 49.0556C245.023 47.2531 245.901 44.8692 245.808 42.4229V23.1158C245.806 21.9765 246.029 20.8482 246.465 19.7952C246.9 18.7422 247.538 17.7853 248.343 16.9792C249.148 16.1731 250.104 15.5336 251.157 15.0973C252.21 14.661 253.338 14.4364 254.477 14.4364H258.856V63.1747H245.841Z" fill="#2B59FF"/>
<path d="M289.111 25.447H283.331V45.1481C283.307 46.1803 283.399 47.2119 283.605 48.2237C283.739 48.9162 284.065 49.5572 284.546 50.0734C285.104 50.5744 285.797 50.9015 286.538 51.0147C287.621 51.2174 288.721 51.3091 289.822 51.2883V63.1746H283.32C274.563 63.1746 270.185 58.9024 270.185 50.358V25.447H266.211V14.3488H270.185V12.1598C270.184 10.4973 270.724 8.87971 271.723 7.55096C272.722 6.22222 274.126 5.25446 275.724 4.79374L283.276 2.60473V14.3488H289.056L289.111 25.447Z" fill="#2B59FF"/>
</svg>
