<svg width="256" height="292" viewBox="0 0 256 292" fill="none" xmlns="http://www.w3.org/2000/svg">
<path d="M30.2395 279.483L18.724 258.469V279.483H7.87732V232.738C7.87732 231.3 8.4487 229.921 9.46577 228.904C10.4828 227.887 11.8623 227.316 13.3006 227.316H18.724V255.333L26.8589 243.385C27.7355 242.106 28.9105 241.06 30.2823 240.337C31.654 239.615 33.1812 239.237 34.7318 239.237H42.0713L29.191 256.906L42.6137 279.501L30.2395 279.483Z" fill="white"/>
<path d="M41.321 259.292C41.2957 256.495 41.856 253.725 42.9661 251.158C44.0325 248.687 45.5672 246.447 47.4855 244.56C49.4071 242.662 51.6704 241.144 54.1562 240.086C56.7274 238.99 59.4961 238.434 62.2912 238.45C65.0687 238.433 67.8199 238.99 70.3719 240.086C75.341 242.242 79.2943 246.22 81.4174 251.203C82.5244 253.771 83.0816 256.541 83.0534 259.337C83.0673 262.132 82.5106 264.899 81.4174 267.471C79.3071 272.474 75.3376 276.462 70.3448 278.597C67.7928 279.693 65.0416 280.25 62.2641 280.233C59.469 280.25 56.7003 279.693 54.1291 278.597C51.6397 277.526 49.3761 275.993 47.4584 274.078C45.5088 272.141 43.9625 269.837 42.9091 267.299C41.8556 264.761 41.3158 262.04 41.321 259.292ZM51.8332 259.211C51.8122 260.67 52.089 262.119 52.6467 263.467C53.1751 264.725 53.9321 265.874 54.8793 266.857C55.8248 267.824 56.9522 268.595 58.1966 269.125C59.4806 269.679 60.8658 269.959 62.2641 269.948C63.6479 269.961 65.0188 269.681 66.2864 269.125C67.5159 268.587 68.63 267.817 69.5675 266.857C70.5095 265.878 71.2551 264.727 71.7639 263.467C72.2998 262.113 72.5669 260.667 72.5503 259.211C72.5637 257.795 72.2964 256.392 71.7639 255.08C71.2584 253.84 70.5118 252.713 69.5675 251.763C68.6211 250.821 67.5088 250.061 66.2864 249.522C65.0167 248.974 63.6468 248.697 62.2641 248.708C60.8669 248.699 59.4825 248.975 58.1966 249.522C56.9589 250.052 55.8332 250.813 54.8793 251.763C53.9297 252.716 53.1718 253.842 52.6467 255.08C52.0895 256.385 51.8094 257.792 51.8242 259.211H51.8332Z" fill="white"/>
<path d="M141.418 279.564H130.571V255.559C130.703 253.74 130.156 251.937 129.034 250.498C128.551 249.941 127.95 249.497 127.275 249.2C126.6 248.903 125.867 248.76 125.13 248.781C124.319 248.757 123.515 248.919 122.777 249.255C122.039 249.59 121.387 250.089 120.872 250.715C119.751 252.106 119.17 253.855 119.236 255.641V279.483H108.39V255.487C108.52 253.672 107.99 251.872 106.898 250.417C106.422 249.861 105.828 249.419 105.158 249.123C104.489 248.827 103.761 248.686 103.03 248.709C102.221 248.684 101.417 248.845 100.68 249.181C99.9433 249.516 99.2937 250.016 98.7813 250.643C97.6551 252.028 97.0705 253.775 97.1362 255.559V279.483H86.2896V244.877C86.2896 243.381 86.8838 241.946 87.9415 240.889C88.9993 239.831 90.4339 239.237 91.9298 239.237H97.1V244.235C98.2302 242.513 99.7508 241.083 101.538 240.059C103.388 239.009 105.485 238.469 107.612 238.496C109.877 238.427 112.101 239.107 113.939 240.43C115.671 241.743 117.022 243.493 117.853 245.5C118.996 243.433 120.656 241.699 122.671 240.466C124.702 239.188 127.06 238.529 129.459 238.568C131.21 238.538 132.945 238.909 134.53 239.653C135.992 240.35 137.278 241.37 138.29 242.635C139.337 243.95 140.122 245.453 140.604 247.064C141.13 248.823 141.392 250.65 141.381 252.486L141.418 279.564Z" fill="white"/>
<path d="M163.581 291.413H153.014C152.991 291.413 152.967 291.407 152.946 291.396C152.925 291.385 152.907 291.369 152.893 291.35C152.88 291.33 152.872 291.307 152.869 291.284C152.866 291.26 152.87 291.236 152.879 291.214L157.922 277.377C157.936 277.342 157.936 277.303 157.922 277.268L142.556 239.445C142.545 239.422 142.54 239.397 142.542 239.372C142.544 239.347 142.552 239.323 142.565 239.302C142.579 239.281 142.598 239.264 142.62 239.253C142.642 239.241 142.667 239.236 142.692 239.237H150.248C151.278 239.237 152.285 239.542 153.142 240.113C153.999 240.684 154.669 241.495 155.066 242.445L163.264 261.994C163.277 262.021 163.296 262.044 163.321 262.06C163.346 262.076 163.375 262.085 163.405 262.085C163.434 262.085 163.463 262.076 163.488 262.06C163.513 262.044 163.532 262.021 163.545 261.994L170.496 242.68C170.858 241.67 171.525 240.795 172.403 240.178C173.282 239.56 174.33 239.228 175.404 239.228H182.409C182.433 239.229 182.456 239.236 182.477 239.248C182.498 239.26 182.516 239.277 182.529 239.297C182.543 239.318 182.551 239.341 182.553 239.365C182.556 239.389 182.553 239.413 182.544 239.436L163.725 291.313C163.714 291.343 163.695 291.368 163.669 291.386C163.643 291.403 163.612 291.413 163.581 291.413Z" fill="white"/>
<path d="M210.881 279.483V274.494C209.586 276.232 207.918 277.658 206 278.669C203.963 279.726 201.697 280.264 199.402 280.233C197.486 280.268 195.586 279.872 193.843 279.076C192.265 278.33 190.868 277.251 189.748 275.913C188.601 274.515 187.738 272.906 187.208 271.177C186.629 269.282 186.342 267.31 186.359 265.329V246.404C186.358 245.463 186.542 244.531 186.901 243.662C187.26 242.792 187.787 242.002 188.452 241.337C189.117 240.671 189.907 240.143 190.776 239.783C191.645 239.422 192.577 239.237 193.518 239.237H197.133V262.275C197.133 264.908 197.781 266.845 199.076 268.086C199.684 268.687 200.406 269.161 201.199 269.481C201.992 269.801 202.84 269.959 203.695 269.948C204.654 269.979 205.609 269.806 206.496 269.44C207.383 269.074 208.181 268.523 208.838 267.824C210.206 266.335 210.931 264.367 210.854 262.347V246.404C210.853 245.463 211.037 244.531 211.396 243.662C211.756 242.792 212.283 242.002 212.948 241.337C213.612 240.671 214.402 240.143 215.271 239.783C216.14 239.422 217.072 239.237 218.013 239.237H221.628V279.483H210.881Z" fill="white"/>
<path d="M246.612 248.329H241.839V264.597C241.819 265.449 241.895 266.301 242.065 267.137C242.176 267.709 242.446 268.238 242.843 268.664C243.304 269.078 243.875 269.348 244.488 269.441C245.382 269.609 246.29 269.685 247.199 269.667V279.483H241.83C234.599 279.483 230.984 275.955 230.984 268.899V248.329H227.703V239.164H230.984V237.357C230.983 235.984 231.429 234.648 232.254 233.551C233.079 232.454 234.238 231.655 235.557 231.274L241.794 229.467V239.164H246.567L246.612 248.329Z" fill="white"/>
<path d="M25.7646 110.358V64.1517H8.5634C6.44534 64.155 4.41515 64.9953 2.91862 66.4881C1.42209 67.9809 0.58154 70.0042 0.581543 72.1137V85.2768C0.581543 88.5706 1.23292 91.8321 2.49849 94.8751C3.76406 97.9181 5.61903 100.683 7.95749 103.012C10.296 105.341 13.0721 107.189 16.1275 108.449C19.1828 109.71 22.4575 110.358 25.7646 110.358Z" fill="white"/>
<path d="M229.63 110.186C236.309 110.186 242.714 107.543 247.437 102.839C252.16 98.1358 254.813 91.7563 254.813 85.1043V71.9411C254.813 69.8295 253.971 67.8043 252.471 66.3112C250.972 64.818 248.939 63.9792 246.819 63.9792H229.63V110.186Z" fill="white"/>
<path d="M0 134.762C0 147.173 5.29649 155.788 13.5135 160.533V182.608C43.0562 201.044 76.66 212.042 111.424 214.653L103.838 147.666H151.556L143.958 214.727C178.529 212.268 211.988 201.505 241.473 183.359V160.533C249.207 155.788 255.395 147.173 255.395 134.762H221.363V54.6492H234.778V7.62919C234.775 5.60467 233.965 3.66419 232.526 2.23379C231.088 0.803391 229.138 -2.63335e-06 227.105 0L27.8684 0C25.8368 0 23.8885 0.803787 22.4519 2.23454C21.0154 3.66529 20.2083 5.6058 20.2083 7.62919V54.6245H33.6352V134.737L0 134.762ZM88.085 148.319C84.7936 151.599 80.4622 153.64 75.829 154.095C71.1958 154.55 66.5474 153.391 62.6761 150.816C58.8048 148.24 55.9502 144.407 54.5986 139.969C53.2471 135.532 53.4823 130.765 55.2642 126.481C57.046 122.198 60.2643 118.662 64.3706 116.476C68.4768 114.291 73.2169 113.591 77.7829 114.497C82.349 115.402 86.4586 117.857 89.4112 121.442C92.3639 125.027 93.977 129.521 93.9755 134.158C93.9732 139.466 91.8544 144.555 88.085 148.307V148.319ZM195.364 148.319C192.072 151.599 187.741 153.64 183.108 154.095C178.474 154.55 173.826 153.391 169.955 150.816C166.083 148.24 163.229 144.407 161.877 139.969C160.526 135.532 160.761 130.765 162.543 126.481C164.325 122.198 167.543 118.662 171.649 116.476C175.755 114.291 180.495 113.591 185.062 114.497C189.628 115.402 193.737 117.857 196.69 121.442C199.642 125.027 201.256 129.521 201.254 134.158C201.248 139.465 199.13 144.553 195.364 148.307V148.319ZM201.254 94.0892C180.068 89.8125 154.724 87.4091 127.499 87.4091C100.274 87.4091 73.8662 89.8741 53.7445 94.0892V47.3404H201.254V94.0892Z" fill="white"/>
</svg>
