<svg width="336" height="283" viewBox="0 0 336 283" fill="none" xmlns="http://www.w3.org/2000/svg">
<g clip-path="url(#clip0_55_203)">
<path d="M33.8963 145.422V84.5346H11.2662C8.47962 84.5389 5.80868 85.6461 3.83982 87.6132C1.87097 89.5804 0.765133 92.2465 0.765137 95.0263V112.372C0.765137 116.712 1.6221 121.01 3.28709 125.02C4.95209 129.029 7.39251 132.673 10.469 135.742C13.5455 138.811 17.1979 141.245 21.2175 142.906C25.2372 144.567 29.5454 145.422 33.8963 145.422Z" fill="#2B59FF"/>
<path d="M302.104 145.195C310.891 145.195 319.318 141.713 325.531 135.514C331.744 129.316 335.235 120.91 335.235 112.144V94.7988C335.235 92.0163 334.127 89.3477 332.154 87.3801C330.182 85.4125 327.507 84.3071 324.717 84.3071H302.104V145.195Z" fill="#2B59FF"/>
<path d="M0 177.579C0 193.934 6.96812 205.287 17.7785 211.539V240.627C56.6452 264.921 100.855 279.413 146.591 282.854L136.611 194.584H199.389L189.393 282.951C234.875 279.711 278.894 265.529 317.684 241.618V211.539C327.86 205.287 336 193.934 336 177.579H291.228V72.0127H308.876V10.0532C308.872 7.38543 307.807 4.8284 305.914 2.94353C304.022 1.05865 301.457 -3.47004e-06 298.782 0L36.664 0C33.9912 0 31.4279 1.05917 29.538 2.94451C27.6481 4.82985 26.5863 7.38693 26.5863 10.0532V71.9803H44.2508V177.547L0 177.579ZM115.886 195.445C111.555 199.766 105.857 202.456 99.7615 203.056C93.666 203.656 87.5506 202.128 82.4574 198.734C77.3643 195.34 73.6087 190.289 71.8306 184.442C70.0525 178.594 70.3619 172.313 72.7062 166.668C75.0504 161.023 79.2845 156.364 84.6867 153.484C90.0889 150.604 96.3249 149.683 102.332 150.876C108.339 152.069 113.746 155.303 117.63 160.027C121.515 164.752 123.637 170.673 123.635 176.784C123.632 183.778 120.845 190.484 115.886 195.428V195.445ZM257.023 195.445C252.692 199.766 246.994 202.456 240.898 203.056C234.803 203.656 228.688 202.128 223.594 198.734C218.501 195.34 214.746 190.289 212.968 184.442C211.189 178.594 211.499 172.313 213.843 166.668C216.187 161.023 220.421 156.364 225.824 153.484C231.226 150.604 237.462 149.683 243.469 150.876C249.476 152.069 254.883 155.303 258.767 160.027C262.652 164.752 264.774 170.673 264.772 176.784C264.764 183.777 261.977 190.481 257.023 195.428V195.445ZM264.772 123.984C236.9 118.348 203.557 115.181 167.74 115.181C131.922 115.181 97.1792 118.43 70.7069 123.984V62.3818H264.772V123.984Z" fill="#2B59FF"/>
</g>
<defs>
<clipPath id="clip0_55_203">
<rect width="336" height="283" fill="white"/>
</clipPath>
</defs>
</svg>
